<svg width="276" height="94" viewBox="0 0 276 94" fill="none" xmlns="http://www.w3.org/2000/svg">
<path d="M4.25436 83.7786C4.25436 84.4264 4.52426 84.9662 5.06407 85.398C5.62188 85.8299 6.26965 86.0458 7.00738 86.0458C8.05101 86.0458 8.97768 85.6589 9.7874 84.8852C10.6151 84.1115 11.029 83.2028 11.029 82.1592C10.2552 81.5474 9.17561 81.2415 7.79011 81.2415C6.78246 81.2415 5.93676 81.4844 5.25301 81.9702C4.58724 82.4561 4.25436 83.0588 4.25436 83.7786ZM7.46622 74.17C9.30157 74.17 10.7501 74.6648 11.8117 75.6545C12.8733 76.6261 13.4041 77.9667 13.4041 79.676V87.8271H11.029V85.9918H10.921C9.89536 87.5033 8.52784 88.259 6.81845 88.259C5.36097 88.259 4.1374 87.8271 3.14775 86.9635C2.1761 86.0998 1.69027 85.0201 1.69027 83.7246C1.69027 82.3571 2.20309 81.2685 3.22872 80.4588C4.27235 79.6491 5.65786 79.2442 7.38525 79.2442C8.86072 79.2442 10.0753 79.5141 11.029 80.0539V79.4871C11.029 78.6234 10.6871 77.8947 10.0033 77.3009C9.31956 76.6891 8.51885 76.3832 7.60117 76.3832C6.21566 76.3832 5.11805 76.968 4.30834 78.1376L2.12212 76.7611C3.32769 75.0337 5.10906 74.17 7.46622 74.17ZM17.0145 74.6018H19.3897V76.4372H19.4976C19.8755 75.7894 20.4513 75.2496 21.225 74.8178C22.0167 74.3859 22.8354 74.17 23.6811 74.17C25.3006 74.17 26.5421 74.6378 27.4058 75.5735C28.2875 76.4912 28.7283 77.8047 28.7283 79.5141V87.8271H26.2452V79.676C26.1912 77.5168 25.1026 76.4372 22.9794 76.4372C21.9897 76.4372 21.162 76.842 20.4963 77.6518C19.8305 78.4435 19.4976 79.3971 19.4976 80.5127V87.8271H17.0145V74.6018ZM38.3907 85.9918C39.6143 85.9918 40.6129 85.551 41.3866 84.6693C42.1963 83.7876 42.6012 82.636 42.6012 81.2145C42.6012 79.829 42.1963 78.6864 41.3866 77.7867C40.5949 76.887 39.5963 76.4372 38.3907 76.4372C37.2031 76.4372 36.2045 76.887 35.3948 77.7867C34.585 78.6864 34.1802 79.829 34.1802 81.2145C34.1802 82.618 34.585 83.7606 35.3948 84.6423C36.2045 85.542 37.2031 85.9918 38.3907 85.9918ZM37.9858 88.259C36.2585 88.259 34.774 87.5752 33.5324 86.2077C32.3089 84.8222 31.6971 83.1578 31.6971 81.2145C31.6971 79.2712 32.3089 77.6068 33.5324 76.2213C34.774 74.8538 36.2585 74.17 37.9858 74.17C38.9575 74.17 39.8392 74.3769 40.6309 74.7908C41.4406 75.2046 42.0614 75.7534 42.4932 76.4372H42.6012L42.4932 74.6018V68.502H44.9764V87.8271H42.6012V85.9918H42.4932C42.0614 86.6756 41.4406 87.2244 40.6309 87.6382C39.8392 88.0521 38.9575 88.259 37.9858 88.259ZM58.037 87.8271H55.5539V74.6018H57.929V76.4372H58.037C58.4148 75.7894 58.9906 75.2496 59.7644 74.8178C60.5561 74.3859 61.3388 74.17 62.1125 74.17C63.0842 74.17 63.9389 74.3949 64.6766 74.8448C65.4144 75.2946 65.9542 75.9154 66.296 76.7071C67.3937 75.0157 68.9141 74.17 70.8574 74.17C72.3869 74.17 73.5655 74.6378 74.3932 75.5735C75.2209 76.5092 75.6347 77.8407 75.6347 79.5681V87.8271H73.1516V79.9459C73.1516 78.7044 72.9267 77.8137 72.4768 77.2739C72.027 76.7161 71.2713 76.4372 70.2097 76.4372C69.256 76.4372 68.4553 76.842 67.8075 77.6518C67.1597 78.4615 66.8359 79.4151 66.8359 80.5127V87.8271H64.3527V79.9459C64.3527 78.7044 64.1278 77.8137 63.678 77.2739C63.2281 76.7161 62.4724 76.4372 61.4108 76.4372C60.4571 76.4372 59.6564 76.842 59.0086 77.6518C58.3609 78.4615 58.037 79.4151 58.037 80.5127V87.8271ZM81.0242 83.7786C81.0242 84.4264 81.2941 84.9662 81.8339 85.398C82.3917 85.8299 83.0395 86.0458 83.7772 86.0458C84.8208 86.0458 85.7475 85.6589 86.5572 84.8852C87.3849 84.1115 87.7988 83.2028 87.7988 82.1592C87.025 81.5474 85.9454 81.2415 84.5599 81.2415C83.5523 81.2415 82.7066 81.4844 82.0228 81.9702C81.357 82.4561 81.0242 83.0588 81.0242 83.7786ZM84.236 74.17C86.0714 74.17 87.5199 74.6648 88.5815 75.6545C89.6431 76.6261 90.1739 77.9667 90.1739 79.676V87.8271H87.7988V85.9918H87.6908C86.6652 87.5033 85.2976 88.259 83.5883 88.259C82.1308 88.259 80.9072 87.8271 79.9176 86.9635C78.9459 86.0998 78.4601 85.0201 78.4601 83.7246C78.4601 82.3571 78.9729 81.2685 79.9985 80.4588C81.0422 79.6491 82.4277 79.2442 84.1551 79.2442C85.6305 79.2442 86.8451 79.5141 87.7988 80.0539V79.4871C87.7988 78.6234 87.4569 77.8947 86.7731 77.3009C86.0894 76.6891 85.2887 76.3832 84.371 76.3832C82.9855 76.3832 81.8879 76.968 81.0781 78.1376L78.8919 76.7611C80.0975 75.0337 81.8789 74.17 84.236 74.17ZM93.7843 74.6018H96.1595V76.4372H96.2674C96.6453 75.7894 97.2211 75.2496 97.9948 74.8178C98.7865 74.3859 99.6052 74.17 100.451 74.17C102.07 74.17 103.312 74.6378 104.176 75.5735C105.057 76.4912 105.498 77.8047 105.498 79.5141V87.8271H103.015V79.676C102.961 77.5168 101.872 76.4372 99.7492 76.4372C98.7595 76.4372 97.9318 76.842 97.2661 77.6518C96.6003 78.4435 96.2674 79.3971 96.2674 80.5127V87.8271H93.7843V74.6018ZM120.781 74.6018L112.495 93.6571H109.931L113.008 86.9904L107.556 74.6018H110.255L114.195 84.1025H114.249L118.082 74.6018H120.781ZM131.76 83.7786C131.76 84.4264 132.03 84.9662 132.57 85.398C133.127 85.8299 133.775 86.0458 134.513 86.0458C135.556 86.0458 136.483 85.6589 137.293 84.8852C138.121 84.1115 138.534 83.2028 138.534 82.1592C137.761 81.5474 136.681 81.2415 135.296 81.2415C134.288 81.2415 133.442 81.4844 132.758 81.9702C132.093 82.4561 131.76 83.0588 131.76 83.7786ZM134.972 74.17C136.807 74.17 138.256 74.6648 139.317 75.6545C140.379 76.6261 140.91 77.9667 140.91 79.676V87.8271H138.534V85.9918H138.426C137.401 87.5033 136.033 88.259 134.324 88.259C132.866 88.259 131.643 87.8271 130.653 86.9635C129.682 86.0998 129.196 85.0201 129.196 83.7246C129.196 82.3571 129.709 81.2685 130.734 80.4588C131.778 79.6491 133.163 79.2442 134.891 79.2442C136.366 79.2442 137.581 79.5141 138.534 80.0539V79.4871C138.534 78.6234 138.193 77.8947 137.509 77.3009C136.825 76.6891 136.024 76.3832 135.107 76.3832C133.721 76.3832 132.624 76.968 131.814 78.1376L129.628 76.7611C130.833 75.0337 132.615 74.17 134.972 74.17ZM149.493 88.0431C148.413 88.0431 147.513 87.7102 146.793 87.0444C146.092 86.3787 145.732 85.452 145.714 84.2644V76.869H143.393V74.6018H145.714V70.5533H148.197V74.6018H151.436V76.869H148.197V83.4547C148.197 84.3364 148.368 84.9392 148.71 85.2631C149.052 85.569 149.439 85.7219 149.87 85.7219C150.068 85.7219 150.257 85.7039 150.437 85.6679C150.635 85.6139 150.815 85.551 150.977 85.479L151.76 87.6922C151.112 87.9261 150.356 88.0431 149.493 88.0431ZM153.72 81.2145C153.72 79.1812 154.359 77.4988 155.636 76.1673C156.932 74.8358 158.56 74.17 160.522 74.17C162.483 74.17 164.102 74.8358 165.38 76.1673C166.676 77.4988 167.323 79.1812 167.323 81.2145C167.323 83.2658 166.676 84.9482 165.38 86.2617C164.102 87.5932 162.483 88.259 160.522 88.259C158.56 88.259 156.932 87.5932 155.636 86.2617C154.359 84.9302 153.72 83.2478 153.72 81.2145ZM156.203 81.2145C156.203 82.636 156.617 83.7876 157.445 84.6693C158.272 85.551 159.298 85.9918 160.522 85.9918C161.745 85.9918 162.771 85.551 163.599 84.6693C164.426 83.7876 164.84 82.636 164.84 81.2145C164.84 79.811 164.426 78.6684 163.599 77.7867C162.753 76.887 161.727 76.4372 160.522 76.4372C159.316 76.4372 158.29 76.887 157.445 77.7867C156.617 78.6684 156.203 79.811 156.203 81.2145ZM172.608 87.8271H170.125V74.6018H172.5V76.4372H172.608C172.986 75.7894 173.562 75.2496 174.336 74.8178C175.127 74.3859 175.91 74.17 176.684 74.17C177.655 74.17 178.51 74.3949 179.248 74.8448C179.986 75.2946 180.525 75.9154 180.867 76.7071C181.965 75.0157 183.485 74.17 185.429 74.17C186.958 74.17 188.137 74.6378 188.964 75.5735C189.792 76.5092 190.206 77.8407 190.206 79.5681V87.8271H187.723V79.9459C187.723 78.7044 187.498 77.8137 187.048 77.2739C186.598 76.7161 185.842 76.4372 184.781 76.4372C183.827 76.4372 183.026 76.842 182.379 77.6518C181.731 78.4615 181.407 79.4151 181.407 80.5127V87.8271H178.924V79.9459C178.924 78.7044 178.699 77.8137 178.249 77.2739C177.799 76.7161 177.044 76.4372 175.982 76.4372C175.028 76.4372 174.228 76.842 173.58 77.6518C172.932 78.4615 172.608 79.4151 172.608 80.5127V87.8271ZM203.908 84.1565C203.908 85.308 203.405 86.2797 202.397 87.0714C201.389 87.8631 200.121 88.259 198.591 88.259C197.26 88.259 196.09 87.9171 195.082 87.2334C194.075 86.5316 193.355 85.6139 192.923 84.4803L195.136 83.5357C195.46 84.3274 195.928 84.9482 196.54 85.398C197.17 85.8299 197.854 86.0458 198.591 86.0458C199.383 86.0458 200.04 85.8748 200.562 85.533C201.101 85.1911 201.371 84.7862 201.371 84.3184C201.371 83.4727 200.723 82.8519 199.428 82.4561L197.161 81.8893C194.588 81.2415 193.301 79.9999 193.301 78.1646C193.301 76.959 193.787 75.9963 194.759 75.2766C195.748 74.5389 197.008 74.17 198.537 74.17C199.707 74.17 200.759 74.4489 201.695 75.0067C202.649 75.5645 203.315 76.3112 203.692 77.2469L201.479 78.1646C201.227 77.6068 200.813 77.1749 200.238 76.869C199.68 76.5452 199.05 76.3832 198.348 76.3832C197.701 76.3832 197.116 76.5452 196.594 76.869C196.09 77.1929 195.838 77.5888 195.838 78.0566C195.838 78.8123 196.549 79.3522 197.97 79.676L199.968 80.1889C202.595 80.8366 203.908 82.1592 203.908 84.1565ZM216.103 87.8271H213.62V74.6018H215.995V76.4372H216.103C216.481 75.7894 217.056 75.2496 217.83 74.8178C218.622 74.3859 219.405 74.17 220.178 74.17C221.15 74.17 222.005 74.3949 222.742 74.8448C223.48 75.2946 224.02 75.9154 224.362 76.7071C225.459 75.0157 226.98 74.17 228.923 74.17C230.453 74.17 231.631 74.6378 232.459 75.5735C233.287 76.5092 233.701 77.8407 233.701 79.5681V87.8271H231.217V79.9459C231.217 78.7044 230.992 77.8137 230.543 77.2739C230.093 76.7161 229.337 76.4372 228.275 76.4372C227.322 76.4372 226.521 76.842 225.873 77.6518C225.226 78.4615 224.902 79.4151 224.902 80.5127V87.8271H222.419V79.9459C222.419 78.7044 222.194 77.8137 221.744 77.2739C221.294 76.7161 220.538 76.4372 219.477 76.4372C218.523 76.4372 217.722 76.842 217.074 77.6518C216.427 78.4615 216.103 79.4151 216.103 80.5127V87.8271ZM236.658 81.2145C236.658 79.1812 237.296 77.4988 238.574 76.1673C239.869 74.8358 241.498 74.17 243.459 74.17C245.421 74.17 247.04 74.8358 248.317 76.1673C249.613 77.4988 250.261 79.1812 250.261 81.2145C250.261 83.2658 249.613 84.9482 248.317 86.2617C247.04 87.5932 245.421 88.259 243.459 88.259C241.498 88.259 239.869 87.5932 238.574 86.2617C237.296 84.9302 236.658 83.2478 236.658 81.2145ZM239.141 81.2145C239.141 82.636 239.555 83.7876 240.382 84.6693C241.21 85.551 242.236 85.9918 243.459 85.9918C244.683 85.9918 245.708 85.551 246.536 84.6693C247.364 83.7876 247.778 82.636 247.778 81.2145C247.778 79.811 247.364 78.6684 246.536 77.7867C245.69 76.887 244.665 76.4372 243.459 76.4372C242.254 76.4372 241.228 76.887 240.382 77.7867C239.555 78.6684 239.141 79.811 239.141 81.2145ZM255.546 87.8271H253.063V74.6018H255.438V76.7611H255.546C255.798 76.0593 256.31 75.4655 257.084 74.9797C257.876 74.4759 258.65 74.224 259.405 74.224C260.125 74.224 260.737 74.3319 261.241 74.5479L260.485 76.95C260.179 76.8241 259.693 76.7611 259.027 76.7611C258.092 76.7611 257.273 77.1389 256.571 77.8947C255.888 78.6504 255.546 79.5321 255.546 80.5397V87.8271ZM268.798 88.259C266.855 88.259 265.253 87.5932 263.994 86.2617C262.734 84.9302 262.105 83.2478 262.105 81.2145C262.105 79.1992 262.716 77.5258 263.94 76.1943C265.163 74.8448 266.729 74.17 268.636 74.17C270.598 74.17 272.154 74.8088 273.306 76.0863C274.475 77.3459 275.06 79.1182 275.06 81.4034L275.033 81.6733H264.642C264.678 82.9689 265.109 84.0125 265.937 84.8042C266.765 85.5959 267.755 85.9918 268.906 85.9918C270.49 85.9918 271.731 85.2001 272.631 83.6166L274.844 84.6963C274.25 85.8119 273.423 86.6846 272.361 87.3143C271.317 87.9441 270.13 88.259 268.798 88.259ZM264.831 79.6221H272.415C272.343 78.7044 271.965 77.9487 271.281 77.3549C270.616 76.7431 269.716 76.4372 268.582 76.4372C267.647 76.4372 266.837 76.7251 266.153 77.3009C265.487 77.8767 265.047 78.6504 264.831 79.6221Z" fill="#2D7BFF"/>
<rect x="115.756" y="0.629395" width="45.4409" height="45.4409" rx="22.7205" fill="#DFEBFF"/>
<g clip-path="url(#clip0_1_369)">
<path d="M142.559 15.8638C141.723 15.8768 140.906 16.1102 140.188 16.5404C139.471 16.9706 138.881 17.5824 138.476 18.314C138.071 17.5824 137.48 16.9706 136.763 16.5404C136.046 16.1102 135.228 15.8768 134.392 15.8638C133.059 15.9217 131.803 16.5047 130.899 17.4856C129.995 18.4664 129.515 19.7652 129.566 21.0984C129.566 24.4745 133.119 28.1618 136.1 30.6618C136.765 31.221 137.607 31.5275 138.476 31.5275C139.345 31.5275 140.186 31.221 140.852 30.6618C143.832 28.1618 147.386 24.4745 147.386 21.0984C147.436 19.7652 146.957 18.4664 146.052 17.4856C145.148 16.5047 143.892 15.9217 142.559 15.8638Z" fill="#2D7BFF"/>
</g>
<defs>
<clipPath id="clip0_1_369">
<rect width="17.82" height="17.82" fill="white" transform="translate(129.566 14.4387)"/>
</clipPath>
</defs>
</svg>
